<?xml version="1.0" standalone="no"?>
<!DOCTYPE svg PUBLIC "-//W3C//DTD SVG 1.1//EN" "http://www.w3.org/Graphics/SVG/1.1/DTD/svg11.dtd" >
<svg xmlns="http://www.w3.org/2000/svg">
<metadata>
Created by FontForge 20120731 at Thu Jun  2 14:33:42 2016
 By admin
</metadata>
<defs>
<font id="iconfont" horiz-adv-x="1024" >
  <font-face 
    font-family="iconfont"
    font-weight="500"
    font-stretch="normal"
    units-per-em="1024"
    panose-1="2 0 6 3 0 0 0 0 0 0"
    ascent="896"
    descent="-128"
    x-height="792"
    bbox="0 -174 1024 896"
    underline-thickness="50"
    underline-position="-100"
    unicode-range="U+0078-E619"
  />
<missing-glyph horiz-adv-x="374" 
d="M34 0v682h272v-682h-272zM68 34h204v614h-204v-614z" />
    <glyph glyph-name=".notdef" horiz-adv-x="374" 
d="M34 0v682h272v-682h-272zM68 34h204v614h-204v-614z" />
    <glyph glyph-name=".null" horiz-adv-x="0" 
 />
    <glyph glyph-name="nonmarkingreturn" horiz-adv-x="341" 
 />
    <glyph glyph-name="x" unicode="x" horiz-adv-x="1001" 
d="M281 543q-27 -1 -53 -1h-83q-18 0 -36.5 -6t-32.5 -18.5t-23 -32t-9 -45.5v-76h912v41q0 16 -0.5 30t-0.5 18q0 13 -5 29t-17 29.5t-31.5 22.5t-49.5 9h-133v-97h-438v97zM955 310v-52q0 -23 0.5 -52t0.5 -58t-10.5 -47.5t-26 -30t-33 -16t-31.5 -4.5q-14 -1 -29.5 -0.5
t-29.5 0.5h-32l-45 128h-439l-44 -128h-29h-34q-20 0 -45 1q-25 0 -41 9.5t-25.5 23t-13.5 29.5t-4 30v167h911zM163 247q-12 0 -21 -8.5t-9 -21.5t9 -21.5t21 -8.5q13 0 22 8.5t9 21.5t-9 21.5t-22 8.5zM316 123q-8 -26 -14 -48q-5 -19 -10.5 -37t-7.5 -25t-3 -15t1 -14.5
t9.5 -10.5t21.5 -4h37h67h81h80h64h36q23 0 34 12t2 38q-5 13 -9.5 30.5t-9.5 34.5q-5 19 -11 39h-368zM336 498v228q0 11 2.5 23t10 21.5t20.5 15.5t34 6h188q31 0 51.5 -14.5t20.5 -52.5v-227h-327z" />
    <glyph glyph-name="uniE600" unicode="&#xe600;" 
d="M512 774q-96 0 -178 -47.5t-129.5 -129.5t-47.5 -179q0 -54 38 -137.5t85 -154t108 -149t85.5 -107t38.5 -44.5q14 17 38 44.5t85.5 106.5t108 149.5t85 154t38.5 137.5q0 97 -47.5 179t-129.5 129.5t-178 47.5zM512 182q-98 0 -167.5 69t-69.5 167t69.5 167.5
t167.5 69.5t167.5 -69t69.5 -167.5t-69.5 -167.5t-167.5 -69zM512 537q-49 0 -83.5 -35t-34.5 -84t34.5 -83.5t83.5 -34.5t83.5 34.5t34.5 83.5t-34.5 84t-83.5 35z" />
    <glyph glyph-name="uniE601" unicode="&#xe601;" 
d="M912 724l-200 1v25q0 45 -35.5 76.5t-86.5 31.5h-156q-51 0 -86.5 -31.5t-35.5 -76.5v-26h-200v-80h68q-2 -18 -2 -32v-535q0 -70 34.5 -118.5t99.5 -48.5h400q65 0 99.5 48.5t34.5 118.5v535q0 15 -2 32h68v80zM379 750q0 17 16 29t39 12h156q23 0 39 -12t16 -29v-26
h-266v26zM779 77q0 -100 -67 -100h-400q-67 0 -67 100v535q0 16 2 32h530q2 -16 2 -32v-535zM312 44h67v533h-67v-533zM479 44h66v533h-66v-533zM645 44h67v533h-67v-533z" />
    <glyph glyph-name="uniE602" unicode="&#xe602;" 
d="M512 274l-256 220h512z" />
    <glyph glyph-name="uniE603" unicode="&#xe603;" 
d="M640 768l384 -384l-384 -384l-92 92l292 292l-292 292z" />
    <glyph glyph-name="uniE604" unicode="&#xe604;" 
d="M994 133l-62 107q-13 23 -38 29.5t-47 -6.5l-48 -28q-56 85 -99 158q-41 72 -87 165l48 28q22 12 28.5 37t-5.5 47l-62 108q-13 22 -38 28.5t-47 -5.5l-141 -81q-22 -13 -28.5 -38t6.5 -47v-1v-1q83 -191 165 -333q88 -153 204 -309q13 -22 39.5 -29.5t48.5 5.5l140 81
q22 13 29 38t-6 47zM801 21q-2 0 -4 2l-4 6q-114 153 -200 302q-78 135 -159 320q-3 8 -7 15l141 81l62 -108l-48 -27q-21 -13 -28.5 -36.5t3.5 -45.5q46 -92 89 -168q45 -77 101 -161q14 -21 37.5 -26.5t45.5 6.5l48 28l62 -107zM22 173l93 -186h93l-93 186h-93zM208 173
l93 -186h93l-93 186h-93zM394 173l93 -186h93l-93 186h-93z" />
    <glyph glyph-name="uniE605" unicode="&#xe605;" 
d="M256 594q-15 12 -35.5 11.5t-34 -14t-12.5 -31.5t16 -31q35 -27 53.5 -65t18.5 -80t-18.5 -80t-53.5 -66q-16 -13 -16 -32q0 -17 13 -29q13 -14 33.5 -15t35.5 12q50 40 77 95t27 115t-27 115t-77 95zM442 738q-15 13 -35 13t-34.5 -12.5t-14.5 -31t14 -31.5
q66 -58 100.5 -133.5t34.5 -158.5t-35 -158.5t-100 -134.5q-14 -12 -14 -30.5t14.5 -31t34.5 -12.5t34 13q80 71 122 162.5t42 191.5t-42 191.5t-121 162.5zM626 883q-14 13 -34.5 13t-35 -12.5t-15 -30.5t13.5 -31q95 -88 146 -201.5t51 -236.5t-51 -236t-146 -202
q-14 -13 -14 -30q0 -19 15 -32q15 -12 35 -12t34 13q109 101 167 230t58 269t-58 269t-166 230zM626 883z" />
    <glyph glyph-name="uniE606" unicode="&#xe606;" 
d="M1024 448h-448v448h-128v-448h-448v-128h448v-448h128v448h448v128z" />
    <glyph glyph-name="uniE607" unicode="&#xe607;" 
d="M513 522q-72 0 -123.5 -51t-51.5 -123.5t51.5 -124t123.5 -51.5t123.5 51.5t51.5 124t-51.5 123.5t-123.5 51v0zM220 742h-102v-44h102v44v0zM933 653h-191q-23 15 -48 62q-9 18 -31 28t-40 11l-18 2h-221h-8q-4 0 -17 -10t-25 -31q-24 -42 -50 -62h-191q-26 0 -43.5 -19
t-17.5 -46v-510q0 -28 17.5 -47t43.5 -19h838q26 0 43.5 19t17.5 47v510q2 27 -16 46t-43 19v0zM513 128q-91 0 -155.5 64t-64.5 155t64.5 155.5t155.5 64.5t155 -64.5t64 -155.5q0 -90 -64.5 -154.5t-154.5 -64.5v0zM827 522q-15 0 -26 11t-11 26t10.5 26t26.5 11
q15 0 25.5 -10.5t10.5 -26.5q-1 -16 -11.5 -26.5t-24.5 -10.5v0zM827 522z" />
    <glyph glyph-name="uniE608" unicode="&#xe608;" 
d="M0 448h1024v-128h-1024v128z" />
    <glyph glyph-name="uniE609" unicode="&#xe609;" 
d="M412 529q-118 68 -176 101q56 110 132 184q11 13 30 17h14l9 -1q34 -6 76 -69q18 -30 35 -63zM512 771q47 -81 78 -153l-93 -54l271 -26l114 248l-94 -54q-44 89 -108 118q-89 -1 -268 -2q47 2 100 -77zM719 417l2 2v-4l69 -148q40 -2 85 -1q82 7 100 37l1 1q0 1 1 2
l6 12q0 9 -2 16q-28 103 -96 206q-9 -6 -74.5 -45t-99.5 -59zM875 248q-92 -1 -171 7l-1 108l-155 -224l160 -221l-1 109q99 -5 156 37l129 233q-21 -41 -117 -49zM308 233q-17 -34 -35 -72q-29 -77 -10 -106q1 -2 2 -3l9 -12q10 -7 23 -9q104 -19 226 -2q-6 73 -18 202z
M257 168q39 85 80 152l98 -46l-135 237l-268 -49l98 -46q-47 -87 -34 -156q94 -133 155 -218q-28 37 6 126zM257 168z" />
    <glyph glyph-name="uniE60A" unicode="&#xe60a;" 
d="M458 165v45q45 25 76.5 82t31.5 119q0 53 -1 79t-9 64t-24.5 55.5t-48.5 31.5t-79.5 14t-79.5 -14t-48 -31.5t-24.5 -55.5t-9.5 -64t-1 -79q0 -62 31.5 -119t76.5 -82v-45q-138 -11 -231.5 -72t-93.5 -143h759q0 82 -93 143t-232 72zM458 165zM723 144q-71 46 -169 68
q19 23 34 50q39 72 39 149q0 48 -1 73.5t-7 62t-18 62.5q-38 82 -135 101q12 53 47 80.5t107 27.5q48 0 80 -14t48 -31.5t24.5 -56t9.5 -64t1 -78.5q0 -62 -31.5 -119t-76.5 -83v-44q138 -12 231.5 -73t93.5 -142h-236q-19 16 -41 31zM723 144z" />
    <glyph glyph-name="uniE60B" unicode="&#xe60b;" 
d="M313 265q-16 56 -53 81q-12 13 6 19q106 6 147 -38q28 -52 -19 -87h71q19 44 25 91q10 43 10 140q-4 28 28 24q6 0 15 -3q81 -12 112 -25q13 -3 16 -15q0 -13 -13 -16q-22 -3 -28 -28q-6 -96 -34 -168h125q46 75 65 75q31 -6 106 -75q12 -25 -10 -28q-44 3 -196 3h-96
q-3 -9 -9 -21q118 -19 192 -62q69 -60 4 -122q-50 -34 -81 34q-28 53 -131 128q-87 -159 -339 -171q-25 0 -31 12q0 10 25 16q165 46 236 186h-180q-75 0 -112 -9q-13 -3 -19 9q-3 3 -6 13q-6 9 -10 12q-3 7 0 10h10q93 -10 168 -10h22q-10 10 -16 25zM671 623h-103v-96h159
q28 52 46 52q47 -15 109 -80q16 -19 6 -32q-3 -9 -28 -9q-68 6 -127 -50q-9 -12 -15.5 -6t-3.5 22q10 50 19 81h-439q-46 0 -96 -13q-13 -3 -19 10l-15 25q-3 6 0 9t9 0q91 -9 152 -9h119v96h-100q-34 0 -93 -9h-6q-13 -7 -16 6q0 3 -6 9q-10 13 -13 19t0 6q3 3 10 0
q84 -9 155 -9h69v18q0 59 -6.5 78t-0.5 25q4 3 28 3q41 -3 116 -18q12 -4 12 -13q-3 -9 -16 -15q-9 -10 -9 -28v-50h121q35 71 50 71q31 -3 103 -71q9 -9 6 -19q-6 -9 -15 -6h-44q-79 3 -118 3zM369 390q-19 56 -50 81q-9 6 -6 12q0 3 12 6q106 10 143 -37q32 -59 -31 -93
q-49 -13 -68 31z" />
    <glyph glyph-name="uniE60C" unicode="&#xe60c;" 
d="M628 582q-12 -6 -12 -34q-4 -143 -28 -243h136q41 72 63 75q37 -9 105 -78q13 -22 -9 -25q-44 3 -196 3h-106q0 -6 -6 -18q-3 -13 -6 -19h3q137 -28 208 -90q56 -66 -6 -125q-59 -37 -93 35q-31 71 -121 155h-4q-71 -162 -364 -202q-18 -3 -25 3q-3 12 13 19
q211 71 271 242h-175q-71 0 -115 -9q-12 0 -15 6q-10 9 -16 28q-3 3 -3 6q3 4 9 4q50 -10 172 -10h152q28 94 28 221q0 40 -9 90q-10 31 25 25q47 -6 124 -22q16 -6 16 -18.5t-16 -18.5zM678 663h-367q-53 0 -97 -9q-12 -4 -15 6q-10 18 -16 28q-3 9 9 9q41 -9 150 -9h330
q31 56 52 65q50 -12 128 -90q12 -19 6 -31q-3 -6 -31 -6q-84 -4 -149 -59q-10 -10 -16 -7q-6 7 -3 22q6 44 19 81zM298 349q-22 65 -62 93q-13 12 6 19q122 3 156 -47q31 -59 -34 -93q-50 -16 -66 28zM339 507q-22 59 -60 91q-6 6 -3 9q0 6 10 6q121 3 152 -43
q31 -60 -34 -94q-47 -12 -65 31z" />
    <glyph glyph-name="uniE60D" unicode="&#xe60d;" 
d="M754 77h-629v453h145q4 5 12 14.5t35.5 35t59.5 46.5h-300q-20 0 -34.5 -14t-14.5 -34v-549q0 -20 14.5 -34t34.5 -14h725q20 0 34.5 14t14.5 34v274l-97 -79v-147zM673 465v-161l323 240l-323 243v-150q-79 0 -144.5 -23.5t-106 -58t-71.5 -82t-45.5 -87t-23.5 -82
t-10.5 -58t-1.5 -23.5q44 71 80.5 114t83 73.5t103 42.5t136.5 12zM673 465z" />
    <glyph glyph-name="uniE60E" unicode="&#xe60e;" 
d="M832 555q1 5 2 8q34 41 38 44q6 7 21 17.5t21 16.5q37 34 32.5 86.5t-48.5 77.5q-70 40 -150 13q-33 -12 -53.5 -47t-16.5 -73h77q0 2 1.5 8t2.5 9q11 42 47 44q38 2 50 -27q15 -36 -22 -66q-7 -6 -20 -15t-19 -14q-42 -33 -31 -82h68zM803 511q-21 0 -35.5 -15.5
t-13.5 -37.5q0 -20 15 -33.5t36 -13.5t35 14.5t14 35.5t-15 35.5t-36 14.5zM803 511zM652 687q24 -22 37 -36q14 -14 21 -24t9 -17q2 -6 2 -12v-13h-127q-9 0 -15 6q-7 7 -11 15q-4 9 -6 18q-3 9 -3 14v106h3q7 0 14.5 -2t16.5 -8t24 -17l35 -30v0zM505 637q0 -17 5.5 -35.5
t16.5 -34.5t28 -26t41 -10h125v-484q0 -25 -10 -45t-26.5 -33.5t-36 -21.5t-38.5 -8h-422q-17 0 -36 9.5t-36 25.5q-17 15 -28 35t-11 41v584q0 17 8 36.5t23 36.5q14 16 32 26.5t38 10.5h327v-107v0zM559 102q23 0 38.5 15.5t15.5 38t-15.5 38t-38.5 15.5h-321
q-23 0 -38.5 -15.5t-15.5 -38t15.5 -38t38.5 -15.5h321v0zM613 369q0 23 -15.5 38.5t-38.5 15.5h-321q-23 0 -38.5 -15.5t-15.5 -38t15.5 -38t38.5 -15.5h321q23 0 38.5 15.5t15.5 37.5v0zM613 369z" />
    <glyph glyph-name="uniE60F" unicode="&#xe60f;" 
d="M512 -32q-88 0 -163 43.5t-118.5 118.5t-43.5 163t43.5 163t118.5 118.5t163 43.5t163 -43.5t118.5 -118.5t43.5 -163t-43.5 -163t-118.5 -118.5t-163 -43.5zM512 555q-108 0 -185 -77t-77 -185.5t77 -185t185 -76.5t185 76.5t77 185t-77 185.5t-185 77zM640 640h-64v104
q0 6 0.5 13.5t0 9t-0.5 3.5t-3.5 1t-7 -1t-12.5 -1t-18 -1h-21q-12 0 -26 1t-19.5 1.5t-11.5 -1.5t-7.5 -7.5t-1.5 -17.5v-104h-64v104q0 53 30 70.5t100 17.5h21q65 0 85 -16t20 -72v-104zM448 384h128v-192h-128v192z" />
    <glyph glyph-name="uniE610" unicode="&#xe610;" 
d="M224 832v-896h576v896h-576zM736 0h-448v768h448v-768zM672 704h-320v-576h320v576zM608 192h-192v448h192v-448zM480 32h64v64h-64v-64z" />
    <glyph glyph-name="uniE611" unicode="&#xe611;" 
d="M512 828q90 0 172 -35.5t141.5 -95t95 -141.5t35.5 -172t-35.5 -172t-95 -141.5t-141.5 -95t-172 -35.5t-172 35.5t-141.5 95t-95 141.5t-35.5 172t35.5 172t95 141.5t141.5 95t172 35.5zM512 896q-139 0 -257 -68.5t-186.5 -186.5t-68.5 -257t68.5 -257t186.5 -186.5
t257 -68.5t257 68.5t186.5 186.5t68.5 257t-68.5 257t-186.5 186.5t-257 68.5zM459 100q6 44 6 92v48h-108q-42 0 -75 -5v81q33 -6 75 -6h108v22l-24 36h-83q-42 0 -75 -6v82q32 -6 75 -6h40l-99 157q-36 56 -50 73h123q8 -26 34 -70l106 -181l105 181q27 44 34 70h124
q-26 -34 -51 -73l-98 -157h40q44 0 75 6v-82q-33 6 -75 6h-84l-23 -37v-21h105q42 0 75 6v-81q-33 5 -75 5h-105v-48q0 -54 5 -92h-105z" />
    <glyph glyph-name="uniE612" unicode="&#xe612;" 
d="M512 256q99 0 161.5 63.5t62.5 160.5v128q0 97 -62.5 160.5t-161.5 63.5t-161.5 -63.5t-62.5 -160.5v-128q0 -97 62.5 -160.5t161.5 -63.5zM352 608q0 68 45 114t115 46t115 -46t45 -114v-128q0 -68 -45 -114t-115 -46t-115 46t-45 114v128zM739 352l-8 3l-4 -7
q-12 -22 -29 -43l-9 -11l14 -3q49 -14 93.5 -65t70 -112.5t27.5 -113.5h-764q2 53 25 113.5t65 112t91 65.5l14 3l-9 11q-17 21 -29 43l-4 7l-8 -3q-61 -20 -111 -80t-75 -132.5t-25 -139.5v-64h896v64q0 66 -27.5 139t-79.5 133t-114 80z" />
    <glyph glyph-name="uniE613" unicode="&#xe613;" 
d="M256 224h-128v-64h128v64zM0 736v-704h1024v704h-1024zM960 96h-896v320h896v-320zM960 544h-896v128h896v-128zM640 224h-320v-64h320v64z" />
    <glyph glyph-name="uniE614" unicode="&#xe614;" 
d="M623 877h-222q-95 0 -176.5 -47t-128.5 -128t-47 -177v-282q0 -95 47 -176.5t128.5 -128.5t176.5 -47h222q85 0 161 39t126 109q10 15 4 32t-24 21l-117 30q-6 2 -13 1q-107 -16 -216 -39l-3 -1q-39 -9 -52 -10.5t-39 1.5q-24 6 -98.5 51t-159.5 103h5q26 0 63.5 -14
t58.5 -30q59 -44 132 -44q63 2 109 14t69.5 29t34 33.5t10.5 32.5q0 19 -13.5 32t-33.5 13q-5 0 -7 -1q-62 -8 -106 -8q-60 0 -81 13q134 12 213 38q16 5 22.5 6t21.5 -2q193 -95 249 -97h2q13 0 24 10q10 10 10 25v247q0 96 -47 177t-128.5 128t-176.5 47zM625 401
q-78 -25 -227 -37q-17 -1 -26 -15q-6 -9 -9.5 -20.5t-3.5 -28t8 -30.5q30 -55 154 -54q-32 -6 -72 -7q-48 0 -89 30q-27 21 -75 39.5t-88 18.5q-43 0 -65 -25q-11 -13 -14 -30v1v282q0 117 83 200t200 83h222q117 0 200 -83t83 -200v-203q-71 23 -189 82q-4 2 -9 3
q-42 8 -81 -5zM436 7q20 -4 38 -4q25 0 85 13q101 23 204 38l57 -15q-83 -79 -197 -79h-222q-105 0 -184 68t-96 170q4 -7 11 -12q39 -27 84.5 -57.5t117.5 -72.5t102 -49zM621 680h-359q-14 0 -24.5 -10t-10.5 -24.5t10.5 -25t24.5 -10.5h359q14 0 24.5 10.5t10.5 25
t-10.5 24.5t-24.5 10zM621 534h-359q-14 0 -24.5 -10.5t-10.5 -25t10.5 -24.5t24.5 -10h359q14 0 24.5 10t10.5 24.5t-10.5 25t-24.5 10.5z" />
    <glyph glyph-name="uniE615" unicode="&#xe615;" 
d="M889 133q-26 20 -82 49.5t-99 50t-43 19.5l-108 -198l-16 47l29 60l-59 60l-59 -60l30 -60l-19 -48l-105 199q-167 -74 -224 -119q-47 -37 -84 -181h924q0 20 -18 72q-25 76 -67 109zM889 133zM517 269q48 0 92 30t72 73t45 90t17 85q0 22 -0.5 35t-2.5 37.5t-6 40.5
t-11.5 38.5t-18.5 37.5t-28.5 31.5t-39.5 26t-52.5 16t-67 6.5t-67 -6.5t-52.5 -16t-39 -26t-28 -31.5t-19 -37.5t-12 -38.5t-6 -40.5t-2 -37.5v-35q0 -38 16.5 -85t45 -90.5t72.5 -73t92 -29.5zM517 269z" />
    <glyph glyph-name="uniE616" unicode="&#xe616;" 
d="M512 256q80 0 136 56t56 136v256q0 80 -56 136t-136 56t-136 -56.5t-56 -135.5v-256q0 -80 56.5 -136t135.5 -56zM864 432v0q0 20 -14 34t-34 14t-34 -14t-14 -34q0 -106 -75 -181t-181 -75t-181 75t-75 181q0 20 -14 34t-34 14t-34 -14t-14 -34v0q0 -133 87 -232
t217 -116v-116h-160q-20 0 -34 -14t-14 -34t14 -34t34 -14h416q20 0 34 14t14 34t-14 34t-34 14h-160v116q130 17 217 116t87 232zM864 432z" />
    <glyph glyph-name="uniE617" unicode="&#xe617;" 
d="M82 81l430 438l430 -438h-860z" />
    <glyph glyph-name="uniE618" unicode="&#xe618;" 
d="M512 896q-139 0 -257 -68.5t-186.5 -186.5t-68.5 -257t68.5 -257t186.5 -186.5t257 -68.5t257 68.5t186.5 186.5t68.5 257t-68.5 257t-186.5 186.5t-257 68.5zM825 531l-351 -344q-3 -5 -7 -8l-16 -17q-17 -16 -24 -9l-167 175q-8 7 9 24l16 16q16 17 24 9l125 -131
l341 334q7 7 17 7t16 -7l17 -16q7 -7 7 -16.5t-7 -16.5z" />
    <glyph glyph-name="uniE619" unicode="&#xe619;" 
d="M512 834q91 0 174.5 -35.5t144 -96t96 -144t35.5 -174.5t-35.5 -174.5t-96 -144t-144 -96t-174.5 -35.5t-174.5 35.5t-144 96t-96 144t-35.5 174.5t35.5 174.5t96 144t144 96t174.5 35.5zM512 896q-139 0 -257 -68.5t-186.5 -186.5t-68.5 -257t68.5 -257t186.5 -186.5
t257 -68.5t257 68.5t186.5 186.5t68.5 257t-68.5 257t-186.5 186.5t-257 68.5z" />
  </font>
</defs>
</svg>
